<svg xmlns="http://www.w3.org/2000/svg" viewBox="0 0 512.002 512.002"><path d="M242.216 92.902c-24.158 0-43.812 19.654-43.812 43.812 0 24.158 19.654 43.812 43.812 43.812 24.158 0 43.812-19.654 43.812-43.812 0-24.158-19.654-43.812-43.812-43.812zm0 71.788c-15.426 0-27.976-12.55-27.976-27.976 0-15.426 12.55-27.976 27.976-27.976 15.426 0 27.976 12.55 27.976 27.976 0 15.426-12.55 27.976-27.976 27.976z"/><path d="M484.433 503.07l-10.455-79.681c-.107-.786-.291-1.573-.607-2.304l-24.655-57.049 29.031-13.196a7.92 7.92 0 00-6.553-14.418l-28.762 13.074-17.581-40.681a7.92 7.92 0 00-14.537 6.282l17.698 40.952-27.876 12.671-39.943-92.423 28.103-12.145 7.417 17.164a7.918 7.918 0 0014.537-6.282l-18.654-43.165c-2.505-5.797-7.362-10.477-13.267-12.735-5.85-2.237-12.199-2.012-17.961.352l-13.567 5.864a23.753 23.753 0 00-6.939 4.605l-24.49-56.677a81.281 81.281 0 008.659-36.567c0-38.005-26.05-70.039-61.231-79.191V20.586C262.801 9.235 253.566 0 242.215 0s-20.586 9.235-20.586 20.586v36.937c-35.181 9.152-61.231 41.185-61.231 79.191a81.285 81.285 0 008.659 36.567L95.893 342.603c-1.622 3.752-.031 8.26 3.594 10.155 4.029 2.106 9.141.297 10.943-3.873l69.027-159.75a82.276 82.276 0 0028.508 21.855l-93.999 217.541-41.769 8.834 23.635-54.698a7.915 7.915 0 00-4.128-10.408 7.914 7.914 0 00-10.409 4.128L28.138 499.41c-1.622 3.752-.031 8.26 3.594 10.155 4.029 2.106 9.141.297 10.943-3.873l21.826-50.51 56.748-12.002a7.92 7.92 0 005.63-4.606l96.078-222.35a81.99 81.99 0 0038.52 0l77.842 180.148-9.587 4.358c-3.675 1.671-5.526 5.987-4.205 9.8 1.505 4.344 6.565 6.521 10.758 4.617l55.719-25.327 24.193 55.98a7.948 7.948 0 001.279 2.038l53.119 61.445c2.408 2.785 6.544 3.536 9.779 1.774 2.841-1.553 4.481-4.778 4.059-7.987zM348.612 244.983a7.967 7.967 0 014.474-5.095l13.567-5.864a7.86 7.86 0 014.598-.512 7.916 7.916 0 015.812 4.641l4.956 11.466-28.103 12.145-4.954-11.465a7.85 7.85 0 01-.35-5.316zM237.465 20.586a4.757 4.757 0 014.751-4.751 4.757 4.757 0 014.751 4.751v34.459a82.197 82.197 0 00-4.751-.149c-1.595 0-3.178.058-4.751.149V20.586zm4.751 182.11c-36.382 0-65.982-29.599-65.982-65.982 0-36.383 29.6-65.982 65.982-65.982s65.982 29.599 65.982 65.982c0 36.383-29.6 65.982-65.982 65.982zm111.066 186.065l-76.815-177.772a82.276 82.276 0 0028.508-21.855l80.202 185.611-31.895 14.016zm53.139-5.499l27.877-12.671 21.396 49.508-28.104 12.145-21.169-48.982zm30.091 62.379l23.105-9.985 5.679 43.281-28.784-33.296z"/></svg>